<svg xmlns="http://www.w3.org/2000/svg" viewBox="0 0 67.52 64.19"><title>Asset 3</title><g id="Layer_2" data-name="Layer 2"><g id="Layer_1-2" data-name="Layer 1"><path d="M42.23,2a3.52,3.52,0,0,1,3.51,2.9,12.73,12.73,0,0,1,.07,5.18,33.53,33.53,0,0,1-3,9.63.79.79,0,0,0,0,.16l1.71-1.55c2.06-1.86,4.63-2.64,7.21-3.39a12.82,12.82,0,0,1,3.56-.59,7.8,7.8,0,0,1,1.59.16,4.13,4.13,0,0,1,3.47,3.09,3.55,3.55,0,0,1-.47,2.56,14.57,14.57,0,0,1-4.28,4.66A37.09,37.09,0,0,1,48,29.35l1.14-.17c.4-.05.81-.09,1.21-.15a13.83,13.83,0,0,1,2-.15A17.07,17.07,0,0,1,59,30.32a17.32,17.32,0,0,1,4.38,2.36,5.14,5.14,0,0,1,2.15,3.72,3.31,3.31,0,0,1-1.8,3.3,9.45,9.45,0,0,1-3.81,1.09,25.87,25.87,0,0,1-2.63.13,32.58,32.58,0,0,1-5.82-.55h-.3a1.28,1.28,0,0,0,.12.15c3,2,4.9,4.83,6.52,7.92a6.25,6.25,0,0,1,.8,3.69c-.28,2.26-1.67,3.55-3.69,3.55a5.43,5.43,0,0,1-1.35-.17,16,16,0,0,1-5.83-3c-1.52-1.15-2.92-2.45-4.37-3.68-.1-.08-.19-.17-.37-.34a21,21,0,0,1,.41,5.92,23.38,23.38,0,0,1-.68,4.25,4.64,4.64,0,0,1-2.85,3.27,3.47,3.47,0,0,1-1.31.26,3.36,3.36,0,0,1-2-.69,8.54,8.54,0,0,1-2.36-2.91A27,27,0,0,1,31.55,51c-.32-1.5-.52-3-.77-4.48l-.58,1.75a13.52,13.52,0,0,1-2.82,4.79A26,26,0,0,1,23.27,57a7.77,7.77,0,0,1-3.17,1.41,5.93,5.93,0,0,1-.83.07,3.64,3.64,0,0,1-3.74-3.87,13.05,13.05,0,0,1,1.18-5.15,33.86,33.86,0,0,1,3.66-6.71,2.38,2.38,0,0,0,.36-.65l-.29.17a17,17,0,0,1-8.73,3.22,25.9,25.9,0,0,1-3,.22,11.88,11.88,0,0,1-2.37-.22,5.13,5.13,0,0,1-4-3,3.43,3.43,0,0,1,.24-3.19,8.67,8.67,0,0,1,2.55-2.74,33.42,33.42,0,0,1,10.78-5.07l.37-.11a.46.46,0,0,0,.1-.07c-3.75-.89-6.65-3.14-9.29-5.77a6.31,6.31,0,0,1-1.84-3.3,3.67,3.67,0,0,1,3.48-4.64c.38,0,.76-.05,1.13-.05a17,17,0,0,1,5.72,1.12c1.89.68,3.71,1.54,5.57,2.32l.4.18c0-.07,0-.11,0-.13-2-2.37-2.78-5.26-3.42-8.2A10.55,10.55,0,0,1,18,8a4.5,4.5,0,0,1,1.77-2.66,3.31,3.31,0,0,1,1.94-.66A4,4,0,0,1,23,4.91a7.65,7.65,0,0,1,2.73,1.87,24.28,24.28,0,0,1,4.39,6.1,44.47,44.47,0,0,1,2,4.26,20.72,20.72,0,0,1,.7,2.71c0-1.36,0-2.75,0-4.14A14.06,14.06,0,0,1,34.63,9,23.79,23.79,0,0,1,38,4.07a6.44,6.44,0,0,1,3.11-1.94A4.78,4.78,0,0,1,42.23,2m-8,42.24h.16a11.38,11.38,0,0,0-.27-22.76H34a11.38,11.38,0,0,0,.28,22.76M42.23,0a7.05,7.05,0,0,0-1.56.18,8.44,8.44,0,0,0-4.08,2.49,24.2,24.2,0,0,0-3.53,5L32.9,8a15.16,15.16,0,0,0-1.41,3.26,25.66,25.66,0,0,0-4.38-5.89A9.71,9.71,0,0,0,23.66,3a5.88,5.88,0,0,0-1.95-.36,5.19,5.19,0,0,0-3.1,1A6.46,6.46,0,0,0,16.06,7.5a12.34,12.34,0,0,0,.08,5.75,35.2,35.2,0,0,0,1,3.88l-.95-.35a18.52,18.52,0,0,0-6.39-1.24q-.66,0-1.32.06a6,6,0,0,0-4.3,2.28,6,6,0,0,0-1,4.74,8.4,8.4,0,0,0,2.4,4.32,27.47,27.47,0,0,0,5.15,4.18,30.89,30.89,0,0,0-6.89,3.82A10.55,10.55,0,0,0,.78,38.33a5.33,5.33,0,0,0-.32,4.94,7.06,7.06,0,0,0,5.43,4.14,13.59,13.59,0,0,0,2.78.27,28.44,28.44,0,0,0,3.27-.23,26.61,26.61,0,0,0,3.77-.71c-.31.64-.59,1.29-.86,1.94a15.26,15.26,0,0,0-1.32,5.93,5.6,5.6,0,0,0,5.74,5.84,7.68,7.68,0,0,0,1.16-.1,9.47,9.47,0,0,0,4-1.74,27.25,27.25,0,0,0,4.44-4.16c.4-.44.77-.9,1.12-1.37a27,27,0,0,0,2.48,6.48,10.52,10.52,0,0,0,2.94,3.55,5.27,5.27,0,0,0,3.16,1.08,5.54,5.54,0,0,0,2.05-.4,6.67,6.67,0,0,0,4-4.62,23.69,23.69,0,0,0,.74-4.63c0-.43,0-.86,0-1.29.35.29.71.57,1.07.85a17.76,17.76,0,0,0,6.57,3.35,7.34,7.34,0,0,0,1.83.23,5.6,5.6,0,0,0,5.67-5.31,8.13,8.13,0,0,0-1-4.86,30.27,30.27,0,0,0-2.86-4.59h.57a26.29,26.29,0,0,0,2.83-.14,11.26,11.26,0,0,0,4.6-1.34,5.31,5.31,0,0,0,2.8-5.17,7,7,0,0,0-2.89-5.15,18.76,18.76,0,0,0-4.86-2.65,21.77,21.77,0,0,0-4-1.25c.38-.27.74-.55,1.11-.83a16.48,16.48,0,0,0,4.83-5.32,5.5,5.5,0,0,0,.62-4,6.12,6.12,0,0,0-5-4.55,9.27,9.27,0,0,0-2-.2,15,15,0,0,0-4.12.67,33.62,33.62,0,0,0-4.25,1.46,34.38,34.38,0,0,0,.88-4.08,14.27,14.27,0,0,0-.1-6A5.5,5.5,0,0,0,42.23,0Zm-8,42.24A9.38,9.38,0,0,1,34,23.48h.14a9.37,9.37,0,0,1,6.73,15.93,9.18,9.18,0,0,1-6.48,2.83Z"/></g></g></svg>