<svg xmlns="http://www.w3.org/2000/svg" viewBox="0 0 56.19 63.38"><title>Asset 7</title><g id="Layer_2" data-name="Layer 2"><g id="Layer_1-2" data-name="Layer 1"><path d="M27.63,2a1.93,1.93,0,0,1,.81.23c2.77,1.45,3.5,4.55,4,7.3q1.67,9.89,3.36,19.76c1.15-.26,1.39-1.54,1.39-2.57a160.61,160.61,0,0,1,1.7-21.78,2,2,0,0,1,.43-.05,2.2,2.2,0,0,1,1.65.81,4,4,0,0,1,.73,2c.51,3,1.5,6.11,1.48,9.18,0,4.19-1.11,8.41-.12,12.5,3.07-2.91,3.3-5.54,5-9.2,1-2.23,2.61-5.93,4.64-7.55h.14c1,0,1.41,1.22,1.39,2.1-.06,5.54-1.65,10.94-3.52,16.2S49.46,40.8,49.1,46.12c-.23,3.68-1.34,7.56-4.43,10.11-2.59,2.15-6.19,3.1-9.65,4a29.52,29.52,0,0,1-7.13,1.18A11.57,11.57,0,0,1,25,61C21,60,18.37,57,14.87,55.18c-3.9-2-9-2.45-11.93-5.42a2.29,2.29,0,0,1-.83-2.37,2.51,2.51,0,0,1,2.34-1.15h0c.82,0,2.32-.47,3.31-.47a1.88,1.88,0,0,1,.5,0c2.37.65,4.34,1.55,6.64,1.55a8.53,8.53,0,0,0,1.31-.1,5.71,5.71,0,0,0,3.43-1.41c1.64-1.6,1.08-4,.45-6.07Q18.32,33.93,16.47,28c-1.56-5-4.69-14.55-2.65-15.19a2.18,2.18,0,0,1,.63-.09c1.92,0,4.15,2.39,5,4a57.39,57.39,0,0,1,2,5.5c1.5,3.88,3.54,7.32,7.45,9.63q-2-8.22-3.2-16.55c-.62-4.25-1-8.78,1.09-12.66a1.17,1.17,0,0,1,.55-.59A.87.87,0,0,1,27.63,2m0-2h0a2.84,2.84,0,0,0-1.05.19h0l0,0A3.18,3.18,0,0,0,25,1.64l0,0v0c-2.42,4.44-1.95,9.5-1.31,13.9.5,3.45,1.11,6.91,1.81,10.35a22.56,22.56,0,0,1-2.22-4.43c-.25-.65-.46-1.31-.68-2a22.69,22.69,0,0,0-1.41-3.68c-1.08-2.09-3.89-5.05-6.74-5.05a4.14,4.14,0,0,0-1.22.18,2.79,2.79,0,0,0-1.62,1.38c-1.17,2.23,0,6.83,2.75,15.68l.2.64q1.84,5.86,3.66,11.74c.69,2.24.71,3.41.06,4a3.82,3.82,0,0,1-2.31.86,7.26,7.26,0,0,1-1,.08,14,14,0,0,1-4.19-.9c-.61-.19-1.24-.39-1.92-.57a3.58,3.58,0,0,0-1-.13,11,11,0,0,0-2.18.29,10.94,10.94,0,0,1-1.13.18h0A4.42,4.42,0,0,0,.28,46.59C-.36,48,.11,49.75,1.53,51.17c2.17,2.19,5.14,3.16,8,4.1A30.51,30.51,0,0,1,14,57a27.33,27.33,0,0,1,3.57,2.31A20.26,20.26,0,0,0,24.47,63a13.82,13.82,0,0,0,3.42.41,30.73,30.73,0,0,0,7.62-1.24c3.31-.83,7.43-1.87,10.44-4.38s4.82-6.42,5.15-11.51c.1-1.55.13-3,.15-4.5.06-3.51.12-6.83,1.3-10.22,1.76-4.92,3.57-10.78,3.64-16.83A4.49,4.49,0,0,0,55,11.52a3.11,3.11,0,0,0-2.23-.95l-.35,0-.58.06-.45.36c-2.33,1.85-4,5.55-5.09,8l-.14.31c-.49,1.07-.87,2.08-1.21,3-.08.23-.17.45-.25.66,0-.54.09-1.08.15-1.63.13-1.45.26-2.95.27-4.46a30,30,0,0,0-.95-6.74c-.21-1-.41-1.87-.56-2.78a5.88,5.88,0,0,0-1.16-2.9,4.18,4.18,0,0,0-3.19-1.53,3.59,3.59,0,0,0-.93.12l-1.28.33-.2,1.31c-.57,3.84-1,7.75-1.29,11.7-.4-2.38-.81-4.77-1.21-7.15s-1.16-6.73-5-8.74A3.73,3.73,0,0,0,27.63,0Z"/></g></g></svg>