<svg xmlns="http://www.w3.org/2000/svg" viewBox="0 0 54.19 61.38"><title>hand</title><g id="Layer_2" data-name="Layer 2"><g id="Layer_1-2" data-name="Layer 1"><path d="M26.89,60.88a12.32,12.32,0,0,1-3.05-.36,19.13,19.13,0,0,1-6.43-3.47,30.93,30.93,0,0,0-3.76-2.43A33.13,33.13,0,0,0,9,52.84C6.3,52,3.52,51.05,1.59,49.11c-1-1-1.32-2-.93-2.92a3,3,0,0,1,2.79-1.45h0a8.37,8.37,0,0,0,1.46-.21,10.4,10.4,0,0,1,1.9-.26,2.38,2.38,0,0,1,.63.07c.64.18,1.26.37,1.86.56a15.14,15.14,0,0,0,4.64,1,8.52,8.52,0,0,0,1.24-.1,5.21,5.21,0,0,0,3.15-1.26c1.38-1.36,1-3.48.32-5.57-1.15-3.76-2.33-7.52-3.51-11.28l-.35-1.11C12.72,20,10.94,13.93,11.94,12a1.22,1.22,0,0,1,.74-.64,2.43,2.43,0,0,1,.77-.12c2.11,0,4.5,2.46,5.41,4.24a21.27,21.27,0,0,1,1.31,3.44c.22.7.45,1.42.71,2.11,1.16,3,2.81,6.31,6.22,8.71-1.19-5.08-2.18-10.25-2.92-15.38-.63-4.35-1.06-8.94,1.14-13a1.69,1.69,0,0,1,.8-.81,1.25,1.25,0,0,1,.51-.1,2.33,2.33,0,0,1,1,.29c3,1.54,3.74,4.76,4.24,7.66q1.6,9.54,3.24,19.08a2.66,2.66,0,0,0,.51-1.81A160.48,160.48,0,0,1,37.37,3.87l.05-.33.32-.08a2,2,0,0,1,.55-.07,2.68,2.68,0,0,1,2,1,4.37,4.37,0,0,1,.83,2.19c.16.94.38,1.91.58,2.85a29.06,29.06,0,0,1,.91,6.41c0,1.45-.14,2.91-.27,4.33a27.63,27.63,0,0,0,0,7.15,15,15,0,0,0,3-5.5c.34-.91.7-1.85,1.17-2.89l.15-.31c1-2.31,2.61-5.8,4.65-7.42l.11-.09.14,0h.19a1.57,1.57,0,0,1,1.16.5,3.05,3.05,0,0,1,.73,2.12c-.06,5.82-1.83,11.53-3.55,16.35-1.26,3.61-1.32,7.05-1.38,10.69,0,1.43,0,2.91-.15,4.42-.3,4.66-1.86,8.18-4.62,10.46s-6.68,3.28-9.84,4.08a29.86,29.86,0,0,1-7.26,1.19Z"/><path d="M26.63,1a1.89,1.89,0,0,1,.81.23c2.77,1.45,3.5,4.55,4,7.3q1.67,9.89,3.37,19.76c1.14-.26,1.38-1.54,1.38-2.57a160.61,160.61,0,0,1,1.7-21.78,2.1,2.1,0,0,1,.43,0,2.18,2.18,0,0,1,1.65.81,4,4,0,0,1,.73,2c.51,3,1.5,6.11,1.48,9.18,0,4.19-1.1,8.41-.12,12.5,3.07-2.91,3.31-5.54,5-9.2,1-2.23,2.61-5.93,4.65-7.55h.13c1,0,1.41,1.22,1.39,2.1-.06,5.54-1.64,10.94-3.52,16.2s-1.21,9.93-1.56,15.25c-.24,3.68-1.35,7.56-4.43,10.11-2.59,2.15-6.19,3.1-9.65,4a29.69,29.69,0,0,1-7.14,1.18A11.57,11.57,0,0,1,24,60C20,59,17.37,56,13.87,54.18c-3.89-2-9-2.45-11.92-5.42a2.25,2.25,0,0,1-.83-2.37,2.49,2.49,0,0,1,2.33-1.15h0c.83,0,2.33-.47,3.32-.47a2,2,0,0,1,.5,0c2.37.65,4.33,1.55,6.63,1.55a8.66,8.66,0,0,0,1.32-.1,5.71,5.71,0,0,0,3.42-1.41c1.64-1.6,1.09-4,.45-6.07C17.93,34.88,16.7,31,15.47,27c-1.56-5-4.68-14.55-2.65-15.19a2.28,2.28,0,0,1,.63-.09c1.92,0,4.15,2.39,5,4a54.8,54.8,0,0,1,2,5.5c1.5,3.88,3.54,7.32,7.45,9.63q-2-8.22-3.2-16.55c-.61-4.25-1-8.78,1.09-12.66a1.26,1.26,0,0,1,.55-.59A.87.87,0,0,1,26.63,1m0-1h0A1.91,1.91,0,0,0,26,.12a2.24,2.24,0,0,0-1.06,1c-2.28,4.18-1.82,9.06-1.21,13.3.69,4.69,1.56,9.41,2.62,14.06a18.33,18.33,0,0,1-4.95-7.64c-.26-.68-.48-1.36-.7-2.08a22,22,0,0,0-1.34-3.52c-.94-1.82-3.45-4.51-5.86-4.51a3.1,3.1,0,0,0-.92.14,1.74,1.74,0,0,0-1,.89c-1,1.89.23,6.7,2.82,14.91l.2.64q1.85,5.88,3.66,11.75c.69,2.24.93,4-.2,5.06a4.76,4.76,0,0,1-2.87,1.13,7.68,7.68,0,0,1-1.17.09,14.78,14.78,0,0,1-4.49-.94c-.6-.19-1.22-.39-1.88-.57a2.88,2.88,0,0,0-.76-.09,10.4,10.4,0,0,0-2,.27,8.51,8.51,0,0,1-1.32.2h0A3.49,3.49,0,0,0,.2,46c-.47,1.07-.1,2.34,1,3.48,2,2,4.85,3,7.61,3.85a31.55,31.55,0,0,1,4.57,1.75,29.39,29.39,0,0,1,3.7,2.39A19.47,19.47,0,0,0,23.71,61a13,13,0,0,0,3.18.38,30.13,30.13,0,0,0,7.38-1.21c3.21-.81,7.2-1.81,10-4.17s4.47-6,4.78-10.82c.11-1.52.13-3,.16-4.44.06-3.6.11-7,1.35-10.54,1.73-4.85,3.52-10.61,3.58-16.51a3.56,3.56,0,0,0-.87-2.47,2.06,2.06,0,0,0-1.52-.65h-.24l-.29,0L51,10.8c-2.13,1.69-3.73,5.25-4.79,7.61l-.14.31c-.48,1.05-.84,2-1.19,2.91a16.82,16.82,0,0,1-2.23,4.49,33.89,33.89,0,0,1,.19-5.92c.13-1.42.27-2.89.27-4.37a29.8,29.8,0,0,0-.92-6.52c-.21-.93-.42-1.89-.57-2.82a4.84,4.84,0,0,0-.95-2.43,3.16,3.16,0,0,0-2.42-1.17,2.59,2.59,0,0,0-.68.09L37,3.14l-.1.66a163.19,163.19,0,0,0-1.69,20.89Q33.77,16.53,32.4,8.37c-.52-3-1.34-6.38-4.5-8A2.71,2.71,0,0,0,26.63,0Z"/></g></g></svg>