<svg xmlns="http://www.w3.org/2000/svg" viewBox="0 0 71.23 65.59"><title>heart</title><g id="Layer_2" data-name="Layer 2"><g id="Layer_1-2" data-name="Layer 1"><g id="SL8pdC.tif"><path d="M34.59,62.73c-2.71-4.35-6.64-7.32-10.8-10.47l-2-1.51-1.56-1.2A114.33,114.33,0,0,1,9.78,40.81,27,27,0,0,1,2,28.25a26.7,26.7,0,0,1-.52-12.53c1.16-5.33,4.37-9.55,9.55-12.54A16.93,16.93,0,0,1,19.77,1c.77,0,1.58,0,2.42.12,5.61.52,10,3.56,13.27,9.29a3.71,3.71,0,0,1,.26.53,17.53,17.53,0,0,1,2.43-3.83,17.07,17.07,0,0,1,11.61-6,18.19,18.19,0,0,1,2-.1A18.61,18.61,0,0,1,68.28,11.12,18.25,18.25,0,0,1,70,17.65a29.47,29.47,0,0,1-.59,10.49,24.8,24.8,0,0,1-5.58,10.23,70.44,70.44,0,0,1-12,10.44A114.88,114.88,0,0,0,37.61,61.19a12.72,12.72,0,0,0-.93,1.08l-.47.57-.89,1.06Z"/><path d="M19.77,2c.77,0,1.55,0,2.33.11,5.8.54,9.69,4,12.5,8.8a6.6,6.6,0,0,1,.49,1.33c.14.42.23.87.39,1.49.18-.33.29-.53.38-.73a21,21,0,0,1,3-5.24,16.11,16.11,0,0,1,11-5.63C50.48,2.07,51.1,2,51.71,2a17.61,17.61,0,0,1,15.68,9.54A17.06,17.06,0,0,1,69,17.75a28.65,28.65,0,0,1-.56,10.15,24,24,0,0,1-5.37,9.82A69.33,69.33,0,0,1,51.28,48,117,117,0,0,0,36.89,60.49c-.51.52-1,1.12-1.45,1.71C32.18,57,27.15,53.61,22.42,50A130.88,130.88,0,0,1,10.48,40.1a26,26,0,0,1-8-24.16c1.15-5.28,4.37-9.17,9.07-11.89a16,16,0,0,1,8.2-2m0-2a17.9,17.9,0,0,0-9.2,2.32C5.14,5.46,1.77,9.89.54,15.51a27.59,27.59,0,0,0,.54,13c1.2,4.67,3.82,8.93,8,13a114.09,114.09,0,0,0,10.56,8.81l1.56,1.2,2,1.51c4.08,3.09,7.94,6,10.55,10.21l1.46,2.33L37,63.49l.49-.6c.29-.36.58-.71.86-1A115.28,115.28,0,0,1,52.47,49.61,71.37,71.37,0,0,0,64.61,39,25.92,25.92,0,0,0,70.4,28.39,30.33,30.33,0,0,0,71,17.54a19.3,19.3,0,0,0-1.84-6.88A19.63,19.63,0,0,0,51.71,0a20.1,20.1,0,0,0-2.05.1A18.11,18.11,0,0,0,37.39,6.46a16.12,16.12,0,0,0-1.7,2.4C32.28,3.5,27.89.64,22.28.12,21.42,0,20.57,0,19.77,0Z"/></g></g></g></svg>