<?xml version="1.0" encoding="utf-8"?>
<!-- Generator: Adobe Illustrator 24.0.3, SVG Export Plug-In . SVG Version: 6.00 Build 0)  -->
<svg version="1.1" id="Layer_1" xmlns="http://www.w3.org/2000/svg" xmlns:xlink="http://www.w3.org/1999/xlink" x="0px" y="0px"
	 viewBox="0 0 1018.4 1136.7" style="enable-background:new 0 0 1018.4 1136.7;" xml:space="preserve">
<style type="text/css">
	.st0{stroke:#000000;stroke-width:19;stroke-miterlimit:10;}
</style>
<path class="st0" d="M666.1,761.3c-99.7-22.9-189.6-22.5-268.4-8.8c1.8-26.9,6.1-56.6,12.9-88.4c6.2-28.7,17-70.7,24.9-95.5
	c15.4-49,33-98.5,52-146.4c14.9-37.4,34.5-84.3,35.2-84.3c2.3,0,13.9,10.3,19.2,16.9c8.3,10.6,15,23.9,27.7,55.3
	c17,42.1,25.8,58.9,41.2,79.2c8.1,10.7,26.1,28.4,36.9,36.4c17.7,13.1,43.2,26.4,63.9,33.1l5.4,1.8l2-2.4c1.2-1.4,3.7-4.5,5.9-7.1
	l3.7-4.5l-6.9-13.5c-12.5-24.5-20.1-43.5-36.9-92.8c-12.1-35.3-12.8-37.3-20.3-55c-17.1-41.1-40.7-67.9-71.7-81.6l-8.4-3.7l10-2.7
	c66-17.5,127.9-53.7,175.7-102.5c12.3-12.6,29.2-32.4,30.5-35.9c0.7-1.7-8.6-16-10.4-16c-0.7,0-11.1,2.3-23,5
	c-117.1,26.7-178.4,47.8-207,71.1c-2.8,2.4-5.4,4.2-5.7,4.2c-0.3,0,3.8-5.2,9-11.6c13-15.8,25.4-32.5,32.1-43.4
	c13.1-21.2,22.6-45.3,26.5-67c2.5-14.7,2.4-40.5-0.5-55.7c-2.1-11.1-5.2-24.1-6.4-26c-0.3-0.4-3.3-1.2-6.7-1.5
	c-3.4-0.4-7.2-1-8.6-1.2c-2.3-0.5-3.2,0.7-10.6,11.9c-10.1,15.3-22.8,31.2-43.3,53.9c-41.4,45.8-54.9,63.7-68.4,90.4
	c-9.8,19.2-15.1,34.6-19.3,55.4l-2.2,10.7l-4.1-6.1c-11.9-17.3-31.9-38.8-45.4-48.4c-24.6-17.5-48.5-26.1-82-29.1
	c-6.1-0.6-27.4-1.5-47.5-2c-46.1-1.2-65.8-3.4-88.9-10.3l-8.2-2.4l-6.1,2.6c-7.2,3.1-8.6,5.6-8.6,14.4c0,7.9,3.4,13.8,11.6,19.8
	c10.4,7.6,14.5,9.4,60.9,26.9c54.9,20.6,82.1,32.1,115.1,48.8c18.7,9.5,43.8,23.2,53.3,29.1l4.7,2.9l-5.7,0.7
	c-33.7,4-66.6,16-94.4,34.4c-13.5,9-20.1,14.4-33.6,27.7c-26.7,26.2-47.7,59.2-60,94.2c-5.9,17.1-10.2,38.8-8.8,45.7
	c0.6,3,1,3.3,8.6,5.7c4.5,1.4,8.5,2.4,9.1,2.4c0.5,0,2.4-2.2,4.3-4.6c8-10.8,25-29.9,34.7-39.3c20.1-19.3,35.8-29.2,66.7-42.3
	c10.3-4.3,21.9-9.2,26-11c9.7-4.1,34.7-16.6,44.6-22.1c9.8-5.7,30.2-18.6,39-25c3.7-2.5,6.9-4.6,7.1-4.4
	c0.1,0.2-16.9,34.7-37.8,76.7c-87.1,174.7-142.1,295.6-171,376.3C101.8,863,25.1,952.8,25.1,952.8s-136.9,138.5,361.6,168.1
	c584.4,33.2,621.6-136.9,621.6-136.9S1064.9,853.1,666.1,761.3z"/>
</svg>
