<svg xmlns="http://www.w3.org/2000/svg" viewBox="0 0 71.98 67.03"><defs><style>.cls-1{stroke:#000;stroke-miterlimit:10;stroke-width:2px;}</style></defs><title>leaf</title><g id="Layer_2" data-name="Layer 2"><g id="Layer_1-2" data-name="Layer 1"><path class="cls-1" d="M70,66.17c-1.44-.86-3.29-1.39-4.26-2.63-3.68-4.74-7.58-6-13.21-3-6,3.25-11.6,1.24-16.59-3.16-11.12-9.8-18.44-22-23.57-35.8C10.3,15.92,6.79,10.74,4.92,7.19c4.13,4.75,12.39,5,19.85,7.19,10.38,3.1,20.39,6.91,28.63,14.37,6.47,5.85,9.21,12.92,8.53,21.58-.66,8.34,1.09,11,8.75,14-.24.59-.45,1.19-.67,1.8"/></g></g></svg>