<svg xmlns="http://www.w3.org/2000/svg" viewBox="0 0 71.08 63.58"><title>Asset 2</title><g id="Layer_2" data-name="Layer 2"><g id="Layer_1-2" data-name="Layer 1"><path d="M36.48,2c4.2,0,9.62,5,13.79,6.57C60.78,12.52,68.75,17.19,69,22.36H41.73s.66,35.13,3.94,37.43C47.34,61,41,61.58,34.73,61.58c-6,0-12-.58-10.4-1.79,3-2.3,4.6-37.43,4.6-37.43H2C2,16.2,11.47,12.55,21.05,8.9,26.79,6.7,32.42,2,36.48,2m0-2c-2.95,0-6.2,1.82-9.63,3.76A50.92,50.92,0,0,1,20.33,7C10.34,10.84,0,14.79,0,22.36v2H26.83c-1,19.06-2.68,32.08-3.85,34a2.34,2.34,0,0,0-.78,2.58c.39,1.13.92,2.68,12.53,2.68,12.24,0,12.76-1.65,13.11-2.75A2.33,2.33,0,0,0,47,58.25c-1.55-2.32-2.81-18.91-3.17-33.89h27.3L71,22.27c-.25-5.51-6.8-10.6-20-15.57A31.16,31.16,0,0,1,46.1,4c-3.18-2-6.47-4-9.62-4Z"/></g></g></svg>