<svg xmlns="http://www.w3.org/2000/svg" viewBox="0 0 64.38 62.89"><title>pebble</title><g id="Layer_2" data-name="Layer 2"><g id="Layer_1-2" data-name="Layer 1"><path d="M23.28,61.89a20.2,20.2,0,0,1-3.91-.37c-12-2.37-13-6-14.53-11.88a52.51,52.51,0,0,0-1.79-5.76C-2.59,29.42,4.25,8.4,16.61,2.24A14.19,14.19,0,0,1,22.91,1c10.78,0,26.7,7.47,34.76,16.31,4.1,4.49,6.06,9.15,5.66,13.48-.67,7.26-6.06,15.1-14.79,21.5C40.48,58.21,30.8,61.89,23.28,61.89Z"/><path d="M22.91,2C37.45,2,63.65,16.45,62.33,30.7c-1.39,15.18-23.93,30.19-39,30.19a18.64,18.64,0,0,1-3.72-.35C4.76,57.62,7.76,53.22,4,43.52-1.74,28.85,5.61,8.84,17.05,3.14A13.23,13.23,0,0,1,22.91,2m0-2h0a15,15,0,0,0-6.75,1.35c-6,3-11.13,9.56-14,18S-.73,37,2.12,44.24A50.64,50.64,0,0,1,3.87,49.9c1.75,6.64,3.22,10.22,15.31,12.61a21.39,21.39,0,0,0,4.1.38c16.28,0,39.56-15.83,41.05-32,.42-4.61-1.63-9.54-5.92-14.25C50.19,7.62,33.93,0,22.91,0Z"/></g></g></svg>