<svg xmlns="http://www.w3.org/2000/svg" viewBox="0 0 71.45 67.95"><title>star</title><g id="Layer_2" data-name="Layer 2"><g id="Layer_1-2" data-name="Layer 1"><polygon points="35.73 55.22 14.97 66.13 18.94 43.02 2.15 26.65 25.35 23.28 35.73 2.26 46.1 23.28 69.3 26.65 52.51 43.02 56.48 66.13 35.73 55.22"/><path d="M35.73,4.52,45.44,24.2l21.71,3.15L51.44,42.67,55.15,64.3,35.73,54.09,16.3,64.3,20,42.67,4.3,27.35,26,24.2,35.73,4.52m0-4.52-1.8,3.63L24.69,22.37,4,25.37,0,26l2.9,2.82,15,14.59L14.33,64l-.68,4,3.58-1.88,18.5-9.72,18.49,9.72L57.81,68l-.69-4L53.59,43.37l15-14.59L71.45,26l-4-.59-20.67-3L37.52,3.63,35.73,0Z"/></g></g></svg>